<?xml version="1.0" encoding="utf-8"?>
<!-- Generator: Adobe Illustrator 19.0.0, SVG Export Plug-In . SVG Version: 6.00 Build 0)  -->
<svg version="1.1" id="Layer_1" xmlns="http://www.w3.org/2000/svg" xmlns:xlink="http://www.w3.org/1999/xlink" x="0px" y="0px"
	 viewBox="-577 622 125 38" style="enable-background:new -577 622 125 38;" xml:space="preserve">
<style type="text/css">
	.st0{fill:#FFFFFF;}
</style>
<title>logo</title>
<g>
	<path class="st0" d="M-551.4,631c0.1,0.1,0.1,0.3,0.1,0.7c0,0.4,0,0.7-0.1,0.9l0.2,0.6c0.3,1.1,0.6,2,0.9,2.8c0.4,1,0.7,2,1.1,3.1
		c0.8,2.5,1.7,4.7,2.5,6.5s1.7,3.1,2.4,3.8c0.5,0.5,0.7,0.8,0.9,1c0.1,0.2,0.2,0.4,0.2,0.6c0,0.4-0.1,0.8-0.4,1.1s-0.6,0.4-1,0.4
		c-1.2,0-2.6-1.9-4.2-5.7c-0.7-1.5-1.1-2.3-1.2-2.3c-0.4,0-1.4,0.1-2.8,0.4c-1.4,0.3-2.8,0.6-4,1c-0.7,0.2-1.1,0.3-1.3,0.3
		c-0.2,0-0.5-0.1-0.7-0.4c0,0-0.1-0.1-0.2-0.1c-0.2,0-0.6,0.6-1.3,1.8c-1.1,2-1.8,3.3-2.1,3.6c-0.3,0.4-0.6,0.6-1,0.6
		c-0.2,0-0.5-0.1-0.9-0.4c-0.3-0.3-0.5-0.6-0.5-0.9c0-0.3,0.2-0.7,0.5-1.2s1-1.6,2-3.1c1.8-2.8,3.3-5.4,4.6-7.8
		c2-3.9,3.2-6.2,3.7-6.9c0.5-0.7,0.9-1,1.2-1C-552.2,630.5-551.7,630.7-551.4,631z M-550.6,642.3c-0.3-0.8-0.8-2.1-1.4-4.2
		c-0.7-2.2-1.1-3.5-1.3-3.9c-0.5,1.1-1.3,2.7-2.3,4.7l-2.5,4.9c0.2-0.2,0.7-0.3,1.5-0.4c0.6-0.1,1.2-0.2,1.6-0.3
		C-552.4,642.6-551,642.3-550.6,642.3z"/>
	<path class="st0" d="M-538.6,647.1c3.4-6.5,6.2-9.8,8.4-9.8c0.6,0,1.1,0.3,1.4,1c0.4,0.7,0.7,2.2,0.9,4.6c0.2,2.5,0.7,4.4,1.5,5.5
		c0.4,0.6,0.6,1,0.6,1.3c0,0.2-0.1,0.5-0.4,0.7c-0.3,0.2-0.6,0.3-0.9,0.3c-0.7,0-1.3-0.4-1.9-1.2c-0.5-0.8-0.9-2.3-1.1-4.4
		c-0.2-2-0.3-3.3-0.5-3.9s-0.5-0.9-0.9-0.9c-1,0-2.9,2.6-5.8,7.8c-0.9,1.6-1.5,2.6-1.9,3s-0.8,0.7-1.1,0.7c-0.4,0-0.7-0.1-1-0.4
		s-0.4-0.5-0.4-0.9c0-0.3,0.1-0.8,0.2-1.5c1.1-6,2-12,2.7-17.9c0.1-1.4,0.4-2.3,0.7-2.7s0.6-0.7,0.8-0.7c0.4,0,0.7,0.2,1.1,0.5
		c0.3,0.3,0.5,0.8,0.5,1.4c0,1.7-0.4,4.1-1.2,7.2c-0.4,1.5-0.8,3.4-1.3,5.7c-0.4,2.3-0.7,3.8-0.7,4.3
		C-538.8,647-538.7,647.1-538.6,647.1L-538.6,647.1z"/>
	<path class="st0" d="M-512.9,640.1c-0.8,0-2.7,2.6-5.4,7.8c-0.9,1.8-1.5,2.7-1.6,2.9s-0.4,0.3-0.9,0.4s-0.8,0.2-1,0.2
		c-0.6,0-0.9-1.2-0.9-3.7c0-1.4,0.3-3.9,0.9-7.6c0.2-1.5,0.4-2.5,0.4-3.2c0-0.6,0.3-0.9,0.8-0.9c1,0,1.5,0.8,1.5,2.3
		c0,0.7-0.2,2.1-0.5,4.2c-0.4,2.4-0.6,3.8-0.6,4.3c0.6-0.6,1.4-1.8,2.5-3.7c1.5-2.6,2.7-4.3,3.4-5c0.7-0.7,1.5-1.1,2.3-1.1
		c0.6,0,1.1,0.4,1.4,1.2s0.6,2.8,0.6,5.9c0,0.8,0.1,1.4,0.2,1.7c0.1,0.4,0.2,0.6,0.3,0.6c0.4,0,1.4-1.5,2.8-4.6
		c0.8-1.6,1.5-2.8,2.2-3.7c0.7-0.8,1.5-1.3,2.4-1.3c0.7,0,1.3,0.4,1.6,1.2s0.6,2,0.7,3.5c0.1,1.6,0.3,3,0.6,4.3
		c0.3,1.3,0.8,2.1,1.6,2.5c0.5,0.3,0.8,0.6,0.8,0.9c0,0.3-0.2,0.7-0.7,1s-0.8,0.5-1.2,0.5c-0.7,0-1.4-0.5-2-1.4s-1-2.9-1.3-6
		c-0.1-1.2-0.3-2.1-0.4-2.6s-0.3-0.8-0.6-0.8c-0.4,0-0.8,0.4-1.4,1.1c-0.5,0.8-1.4,2.3-2.5,4.6c-0.9,1.8-1.6,3-2.1,3.6
		c-0.5,0.6-0.9,0.9-1.4,0.9c-0.4,0-0.7-0.2-1.1-0.5s-0.5-0.7-0.6-1.2c-0.1-0.5-0.2-1.6-0.3-3.4
		C-512.3,642.3-512.6,640.6-512.9,640.1z"/>
	<path class="st0" d="M-482.8,646.5c0,1-0.8,2.1-2.5,3.5c-1.6,1.4-3.3,2-5.1,2c-1.5,0-2.6-0.5-3.4-1.4s-1.2-2.2-1.2-3.8
		c0-2.7,0.9-5.3,2.6-7.7c1.8-2.4,3.7-3.7,5.8-3.7c0.7,0,1.2,0.2,1.7,0.7s0.6,1,0.6,1.7c0,1.5-0.7,2.9-2.1,4.2
		c-1.4,1.3-3.2,2.6-5.5,3.9c-0.5,0.3-0.7,0.6-0.7,1c0,0.8,0.2,1.4,0.7,1.9c0.4,0.5,1.1,0.7,1.9,0.7c2,0,4-1.1,6-3.4
		c0.3-0.3,0.5-0.5,0.7-0.5C-482.9,645.8-482.8,646-482.8,646.5z M-492.3,644.3c3.9-2.4,5.8-4.3,5.8-5.8c0-0.6-0.2-0.9-0.7-0.9
		c-0.8,0-1.8,0.6-2.8,1.9S-491.9,642.5-492.3,644.3z"/>
	<path class="st0" d="M-470.1,645.5c-1.2,2-2.5,3.6-3.9,4.7c-1.4,1.1-2.6,1.7-3.8,1.7c-0.9,0-1.6-0.4-2.1-1.1s-0.8-1.6-0.8-2.8
		c0-2.4,0.9-4.9,2.8-7.4s3.9-3.8,6.1-3.8c0.9,0,1.8,0.4,2.6,1.3l1.9-9.3c0.1-0.6,0.4-1.1,0.8-1.3c0.4-0.2,0.7-0.3,0.9-0.3
		c0.6,0,1,0.6,1,1.8c0,0.2-0.2,1-0.6,2.3c-0.7,2.1-1.3,4.6-1.9,7.7s-0.9,5.5-0.9,7.3c0,1.9,0.4,2.8,1.2,2.8c0.5,0,1-0.2,1.6-0.5
		c0.2-0.2,0.4-0.3,0.6-0.3c0.3,0,0.4,0.2,0.4,0.6c0,0.5-0.4,1-1.2,1.7c-0.8,0.6-1.7,1-2.5,1c-1.5,0-2.3-1.5-2.3-4.5
		C-470.2,646.5-470.2,646-470.1,645.5z M-471.9,638.8c-1.5,0-2.9,1-4.4,3.1c-1.4,2.1-2.2,4-2.2,5.8c0,1.2,0.4,1.8,1.1,1.8
		c0.7,0,1.6-0.4,2.6-1.2s2.1-2,3.1-3.7c1.1-1.7,1.6-3,1.6-3.8c0-0.4-0.2-0.8-0.6-1.3C-470.9,639-471.4,638.8-471.9,638.8z"/>
</g>
</svg>
